<?xml version="1.0" encoding="UTF-8"?>
<!DOCTYPE svg PUBLIC "-//W3C//DTD SVG 1.1//EN" "http://www.w3.org/Graphics/SVG/1.1/DTD/svg11.dtd">
<svg xmlns="http://www.w3.org/2000/svg" version="1.1" width="453px" height="176px" style="shape-rendering:geometricPrecision; text-rendering:geometricPrecision; image-rendering:optimizeQuality; fill-rule:evenodd; clip-rule:evenodd" xmlns:xlink="http://www.w3.org/1999/xlink">
<g><path style="opacity:1" fill="#21415e" d="M 223.5,41.5 C 224.649,41.7911 225.316,42.6244 225.5,44C 223.287,51.7196 222.121,59.553 222,67.5C 226.36,65.9102 230.86,64.7435 235.5,64C 236.646,63.3551 237.646,62.5217 238.5,61.5C 239.518,62.1925 240.518,62.8592 241.5,63.5C 243.95,65.6291 245.617,68.2957 246.5,71.5C 245.518,70.8592 244.518,70.1925 243.5,69.5C 234.886,72.0885 226.219,74.4218 217.5,76.5C 216.363,84.8809 215.03,93.2143 213.5,101.5C 212.01,108.462 210.677,115.462 209.5,122.5C 197.132,106.447 186.132,89.4467 176.5,71.5C 176.833,70.8333 177.167,70.1667 177.5,69.5C 183.673,71.527 189.506,74.1936 195,77.5C 205.566,65.5375 215.066,53.5375 223.5,41.5 Z"/></g>
<g><path style="opacity:1" fill="#182c4d" d="M 241.5,63.5 C 240.518,62.8592 239.518,62.1925 238.5,61.5C 237.646,62.5217 236.646,63.3551 235.5,64C 230.86,64.7435 226.36,65.9102 222,67.5C 222.121,59.553 223.287,51.7196 225.5,44C 225.316,42.6244 224.649,41.7911 223.5,41.5C 224.254,39.4947 225.421,38.828 227,39.5C 232.107,47.3894 236.941,55.3894 241.5,63.5 Z"/></g>
<g><path style="opacity:1" fill="#33678a" d="M 246.5,71.5 C 251.307,77.7606 255.641,84.4273 259.5,91.5C 258.277,92.6139 256.944,92.7805 255.5,92C 250.469,89.4844 245.469,86.9844 240.5,84.5C 236.767,88.2272 233.434,92.2272 230.5,96.5C 230.5,95.5 230.5,94.5 230.5,93.5C 225.942,94.7662 221.276,95.9329 216.5,97C 215.947,98.8778 214.947,100.378 213.5,101.5C 215.03,93.2143 216.363,84.8809 217.5,76.5C 226.219,74.4218 234.886,72.0885 243.5,69.5C 244.518,70.1925 245.518,70.8592 246.5,71.5 Z"/></g>
<g><path style="opacity:1" fill="#5baed0" d="M 101.5,70.5 C 107.842,70.3338 114.175,70.5005 120.5,71C 121.435,73.3806 121.768,75.8806 121.5,78.5C 117.818,78.3347 114.152,78.5014 110.5,79C 109.167,80.3333 109.167,81.6667 110.5,83C 113.426,83.2178 116.26,83.7178 119,84.5C 119.18,86.4884 119.014,88.4884 118.5,90.5C 115.552,90.2229 112.719,90.5562 110,91.5C 110.524,95.2065 110.358,98.8731 109.5,102.5C 106.223,102.784 103.057,102.451 100,101.5C 99.3333,91.8333 99.3333,82.1667 100,72.5C 100.717,71.9558 101.217,71.2891 101.5,70.5 Z"/></g>
<g><path style="opacity:1" fill="#5eaecf" d="M 133.5,70.5 C 141.752,70.1842 149.919,70.5175 158,71.5C 159.035,74.6489 158.368,77.3156 156,79.5C 154.333,78.1667 152.667,78.1667 151,79.5C 150.5,87.1594 150.334,94.8261 150.5,102.5C 147.223,102.784 144.057,102.451 141,101.5C 140.5,93.8406 140.334,86.1739 140.5,78.5C 133.082,80.0873 130.748,77.4206 133.5,70.5 Z"/></g>
<g><path style="opacity:1" fill="#5aafd2" d="M 270.5,70.5 C 278.507,70.3336 286.507,70.5003 294.5,71C 296.993,77.6797 294.659,80.1797 287.5,78.5C 287.666,86.1739 287.5,93.8406 287,101.5C 284.263,102.61 281.429,102.777 278.5,102C 277.683,94.2457 277.183,86.4124 277,78.5C 270.015,80.005 267.848,77.3383 270.5,70.5 Z"/></g>
<g><path style="opacity:1" fill="#58aed2" d="M 65.5,70.5 C 85.0083,70.4943 91.175,79.4943 84,97.5C 76.8026,104.205 68.9692,105.039 60.5,100C 50.1287,88.06 51.7954,78.2267 65.5,70.5 Z M 69.5,78.5 C 76.962,80.0903 79.1286,84.4236 76,91.5C 69.5015,96.3382 65.6681,94.6715 64.5,86.5C 64.546,82.7935 66.2126,80.1268 69.5,78.5 Z"/></g>
<g><path style="opacity:1" fill="#59afd2" d="M 343.5,70.5 C 346.518,70.3354 349.518,70.502 352.5,71C 357.576,81.0559 361.576,91.5559 364.5,102.5C 361.15,102.665 357.817,102.498 354.5,102C 353.663,100.989 353.33,99.8221 353.5,98.5C 350.15,98.335 346.817,98.5017 343.5,99C 342.833,100 342.167,101 341.5,102C 339.236,102.236 337.069,102.736 335,103.5C 332.73,101.685 332.064,99.3521 333,96.5C 336.596,87.8783 340.096,79.2116 343.5,70.5 Z M 347.5,84.5 C 349.074,86.1016 349.741,88.1016 349.5,90.5C 348.5,90.5 347.5,90.5 346.5,90.5C 346.833,88.5 347.167,86.5 347.5,84.5 Z"/></g>
<g><path style="opacity:0.998" fill="#59aed2" d="M 302.5,70.5 C 307.511,70.3341 312.511,70.5007 317.5,71C 326.553,73.4866 329.053,78.9866 325,87.5C 323.702,88.5596 322.535,89.7263 321.5,91C 323.856,94.5433 325.522,98.3766 326.5,102.5C 323.15,102.665 319.817,102.498 316.5,102C 314.481,98.9445 312.648,95.7779 311,92.5C 311.813,95.8385 311.646,99.1719 310.5,102.5C 307.346,103.095 304.346,103.095 301.5,102.5C 300.708,92.0058 301.041,81.3391 302.5,70.5 Z M 311.5,78.5 C 316.53,78.309 317.863,80.1423 315.5,84C 310.728,84.8104 309.395,82.9771 311.5,78.5 Z"/></g>
<g><path style="opacity:1" fill="#5bafd2" d="M 406.5,70.5 C 414.556,70.1981 422.556,70.5315 430.5,71.5C 431.641,73.4213 431.808,75.4213 431,77.5C 428.667,78.1667 426.333,78.8333 424,79.5C 423.816,87.0795 423.316,94.5795 422.5,102C 419.571,102.777 416.737,102.61 414,101.5C 413.5,93.8406 413.334,86.1739 413.5,78.5C 406.082,80.0873 403.748,77.4206 406.5,70.5 Z"/></g>
<g><path style="opacity:1" fill="#5aaed0" d="M 380.5,70.5 C 388.061,69.4059 394.228,71.7392 399,77.5C 400.009,79.0249 400.509,80.6916 400.5,82.5C 395.882,83.7686 391.549,82.9352 387.5,80C 381.638,78.52 378.638,80.8533 378.5,87C 378.863,90.8583 380.863,93.3583 384.5,94.5C 387.886,92.6187 391.386,90.952 395,89.5C 396.766,90.2335 398.599,90.5668 400.5,90.5C 398.897,98.9072 393.73,103.24 385,103.5C 370.395,100.295 365.729,91.6282 371,77.5C 373.529,74.1151 376.696,71.7818 380.5,70.5 Z"/></g>
<g><path style="opacity:1" fill="#59aed1" d="M 24.5,70.5 C 28.9362,70.2101 33.2695,70.7101 37.5,72C 40.6201,74.4077 41.9534,77.5743 41.5,81.5C 39.5714,81.2308 37.9047,81.7308 36.5,83C 43.1192,87.7166 44.1192,93.3833 39.5,100C 32.1523,104.834 25.1523,104.334 18.5,98.5C 17.6816,96.8917 17.0149,95.2251 16.5,93.5C 21.3209,91.8338 25.6543,92.5004 29.5,95.5C 32.0789,94.1117 32.0789,92.6117 29.5,91C 19.9735,89.5337 16.1402,84.367 18,75.5C 19.8049,73.1743 21.9716,71.5077 24.5,70.5 Z M 27.5,78.5 C 30.4886,79.2984 33.1552,80.7984 35.5,83C 31.5384,83.6364 28.8718,82.1364 27.5,78.5 Z"/></g>
<g><path style="opacity:1" fill="#468cae" d="M 230.5,96.5 C 225.555,102.967 220.721,109.633 216,116.5C 213.917,118.756 211.75,120.756 209.5,122.5C 210.677,115.462 212.01,108.462 213.5,101.5C 214.947,100.378 215.947,98.8778 216.5,97C 221.276,95.9329 225.942,94.7662 230.5,93.5C 230.5,94.5 230.5,95.5 230.5,96.5 Z"/></g>
</svg>
