<?xml version="1.0" encoding="UTF-8"?>
<svg version="1.1" xmlns="http://www.w3.org/2000/svg" width="458" height="165" color="#1c4fc3">
<path d="M0 0 C1.54958007 0.24384329 3.09914973 0.48775279 4.64868748 0.73186481 C9.90903499 1.33173585 15.23412422 1.15417533 20.52171326 1.15821838 C21.90543941 1.16278852 23.28916419 1.1677892 24.67288738 1.17318195 C28.46519461 1.18672102 32.2574929 1.19416911 36.04981792 1.20060861 C40.1431316 1.2086312 44.23642681 1.22232256 48.32972717 1.23532104 C55.41832842 1.25705745 62.50693157 1.27521229 69.59554863 1.29092598 C79.84446529 1.31365046 90.09336147 1.3417897 100.34226073 1.37124526 C116.97092193 1.41888957 133.59959152 1.46216231 150.22827148 1.50268555 C166.38029635 1.54205656 182.53231377 1.58348663 198.68432617 1.62768555 C199.68014363 1.63040982 200.67596109 1.63313409 201.70195483 1.63594092 C206.69774029 1.64962066 211.69352562 1.66334088 216.68931091 1.67708123 C258.12619179 1.79099635 299.56308883 1.89774383 341 2 C341 6.62 341 11.24 341 16 C345.62 16 350.24 16 355 16 C355 40.09 355 64.18 355 89 C242.8 89 130.6 89 15 89 C15 84.38 15 79.76 15 75 C10.71 75 6.42 75 2 75 C1.67 52.23 1.34 29.46 1 6 C0.34 6 -0.32 6 -1 6 C-1.042721 4.33388095 -1.04063832 2.66617115 -1 1 C-0.67 0.67 -0.34 0.34 0 0 Z M20 20 C17.17342768 23.27287321 16.09120375 25.2573409 15.5625 29.5625 C16.18729342 34.47159113 18.22124342 37.848212 22 41 C24.80916826 41.90160527 27.6254468 42.51404391 30.50390625 43.15625 C33 44 33 44 35 47 C34.45945946 51.54054054 34.45945946 51.54054054 33 53 C31.48071962 53.07179964 29.95832518 53.08392007 28.4375 53.0625 C27.61121094 53.05347656 26.78492188 53.04445312 25.93359375 53.03515625 C25.29550781 53.02355469 24.65742187 53.01195312 24 53 C23.67 51.68 23.34 50.36 23 49 C20.69 49 18.38 49 16 49 C16.27698174 52.97007156 16.76684223 54.72389212 19.375 57.8125 C23.07602591 60.89668826 26.08869434 61.34687111 30.8671875 61.28515625 C34.63672803 60.78117006 36.91871212 59.21852727 40 57 C42.76889909 52.65681046 42.80795463 47.98508007 42 43 C38.55245814 38.52751327 34.89798867 36.00791637 29.375 34.9375 C25.10060362 34.10060362 25.10060362 34.10060362 24 33 C23.85884839 30.32941149 23.95752893 27.67567762 24 25 C27.03239867 24.77113972 29.97583621 24.63146391 33 25 C34.6875 27 34.6875 27 36 29 C39.12586875 29.33397787 39.12586875 29.33397787 42 29 C41.86210108 26.03517326 41.71055664 23.78765516 39.66796875 21.5234375 C33.22665835 16.16351498 27.27016759 15.1532216 20 20 Z M54.6875 23.125 C49.67884101 29.66636338 48.31270766 36.22851377 49.359375 44.3515625 C50.87210816 50.60542275 54.52523125 55.61085744 60 59 C67.06062805 61.61504743 73.20997196 61.86200976 80.1484375 58.96875 C84.958902 56.4518825 88.02691939 52.27055739 90.26953125 47.4375 C92.1937108 41.01670834 92.14888847 33.6538366 89.375 27.5 C86.5914618 22.85423554 83.1211833 19.98988554 78.1875 17.6875 C69.54662001 15.82378079 61.01761353 16.40510115 54.6875 23.125 Z M266 24 C260.9575525 30.53038283 261.12104017 38.08010932 262 46 C263.53774956 52.43614385 267.32253869 55.44070496 272.78125 58.87109375 C277.29164898 61.16599746 281.99102319 61.67310858 287 61 C290.12335055 59.8910895 293.0595138 58.52469655 296 57 C296 55.68 296 54.36 296 53 C295.34 52.34 294.68 51.68 294 51 C292.01508358 51.26676204 292.01508358 51.26676204 290 52 C284.61546376 53.79484541 279.79944314 53.83307553 274.625 51.4375 C270.74388229 47.83360498 269.1429746 44.73384761 268.87109375 39.53515625 C269.17440108 33.42305392 270.51570375 30.16398938 275 26 C277.77052181 25.07649273 279.56688758 24.83670415 282.4375 24.8125 C283.19933594 24.79832031 283.96117187 24.78414062 284.74609375 24.76953125 C287.24130837 25.02467451 288.80369005 25.83451628 291 27 C293.1477633 27.00478037 293.1477633 27.00478037 295 26 C296.28436734 24.0162233 296.28436734 24.0162233 297 22 C295.906875 21.360625 294.81375 20.72125 293.6875 20.0625 C293.07261719 19.70285156 292.45773437 19.34320313 291.82421875 18.97265625 C283.22494678 14.38760546 272.56972628 17.24778132 266 24 Z M100 18 C100 31.86 100 45.72 100 60 C102.31 60 104.62 60 107 60 C107 54.06 107 48.12 107 42 C112.94 42 118.88 42 125 42 C125 40.02 125 38.04 125 36 C119.06 36 113.12 36 107 36 C107 32.04 107 28.08 107 24 C114.26 24 121.52 24 129 24 C129 22.02 129 20.04 129 18 C119.43 18 109.86 18 100 18 Z M133 18 C133 19.98 133 21.96 133 24 C135.97 24 138.94 24 142 24 C142 35.88 142 47.76 142 60 C143.98 60 145.96 60 148 60 C148 48.12 148 36.24 148 24 C150.97 24 153.94 24 157 24 C157 22.02 157 20.04 157 18 C149.08 18 141.16 18 133 18 Z M160 18 C160 19.98 160 21.96 160 24 C162.97 24 165.94 24 169 24 C169 35.88 169 47.76 169 60 C171.31 60 173.62 60 176 60 C176 48.12 176 36.24 176 24 C178.97 24 181.94 24 185 24 C185 22.02 185 20.04 185 18 C176.75 18 168.5 18 160 18 Z M191 18 C191 31.86 191 45.72 191 60 C193.31 60 195.62 60 198 60 C198 54.06 198 48.12 198 42 C204 43 204 43 205.41552734 44.67407227 C205.87113037 45.73452759 205.87113037 45.73452759 206.3359375 46.81640625 C206.67753906 47.58017578 207.01914062 48.34394531 207.37109375 49.13085938 C207.70238281 49.93330078 208.03367187 50.73574219 208.375 51.5625 C208.72949219 52.36880859 209.08398438 53.17511719 209.44921875 54.00585938 C210.32018857 55.99496613 211.16287147 57.99641573 212 60 C214.64 60 217.28 60 220 60 C219.4946875 58.87980469 218.989375 57.75960937 218.46875 56.60546875 C217.81220942 55.13294202 217.15597534 53.66027861 216.5 52.1875 C216.16613281 51.44951172 215.83226562 50.71152344 215.48828125 49.95117188 C215.17246094 49.23896484 214.85664063 48.52675781 214.53125 47.79296875 C214.09135742 46.81106567 214.09135742 46.81106567 213.64257812 45.80932617 C213 44 213 44 213 41 C213.78375 40.38125 214.5675 39.7625 215.375 39.125 C218.34025606 36.72455462 219.25563322 35.72183392 220 32 C219.6621704 27.28727705 218.92010825 23.968535 215.625 20.5 C213.3314135 19.18937914 211.59517592 18.38447051 209 18 C209 18.66 209 19.32 209 20 C208.34 20 207.68 20 207 20 C207 19.34 207 18.68 207 18 C201.72 18 196.44 18 191 18 Z M240 18 C238.52323646 21.60646505 237.04832664 25.21368263 235.57495117 28.8215332 C234.83409312 30.63465458 234.09187164 32.44721866 233.34960938 34.25976562 C227.18125366 46.80615173 227.18125366 46.80615173 224 60 C226.31 60 228.62 60 231 60 C231.66 58.68 232.32 57.36 233 56 C237.95 56 242.9 56 248 56 C248.66 57.32 249.32 58.64 250 60 C252.31 60 254.62 60 257 60 C254.82922146 51.95316913 251.86402392 44.25760153 248.7565918 36.53808594 C247.92892901 34.47867344 247.11161314 32.41534694 246.29492188 30.3515625 C245.76884034 29.03621373 245.24216953 27.72110045 244.71484375 26.40625 C244.24167725 25.22353516 243.76851074 24.04082031 243.28100586 22.82226562 C242.17042915 19.93600913 242.17042915 19.93600913 240 18 Z M302 18 C302 19.98 302 21.96 302 24 C304.97 24 307.94 24 311 24 C311 35.88 311 47.76 311 60 C313.31 60 315.62 60 318 60 C318 48.12 318 36.24 318 24 C320.97 24 323.94 24 327 24 C327 22.02 327 20.04 327 18 C318.75 18 310.5 18 302 18 Z " fill="#344778" transform="translate(57,39)"/>
<path d="M0 0 C4.29 0 8.58 0 13 0 C13 24.09 13 48.18 13 73 C-99.2 73 -211.4 73 -327 73 C-327 62 -327 62 -325 59 C-322.67410553 58.62740451 -322.67410553 58.62740451 -319.69387627 58.63085651 C-317.99497287 58.6218968 -317.99497287 58.6218968 -316.26174819 58.61275607 C-315.00690663 58.6214946 -313.75206506 58.63023312 -312.459198 58.63923645 C-311.1210347 58.63792928 -309.78287215 58.63530448 -308.44471371 58.63146895 C-304.75502503 58.62473462 -301.0655957 58.63679679 -297.37594008 58.65180314 C-293.40184118 58.66471703 -289.42775778 58.66037734 -285.4536438 58.65809631 C-278.5640807 58.65652062 -271.6746026 58.66596061 -264.78506088 58.68280983 C-254.82386286 58.70715535 -244.86270608 58.71500053 -234.90148152 58.7187738 C-218.7414266 58.72534529 -202.58141701 58.74532532 -186.42138672 58.77368164 C-170.72021716 58.8012042 -155.0190599 58.82244659 -139.31787109 58.83520508 C-138.35060997 58.83599325 -137.38334885 58.83678142 -136.38677679 58.83759347 C-131.53447905 58.84150849 -126.68218122 58.84529964 -121.82988334 58.84902918 C-81.55322401 58.88014679 -41.27661459 58.93300152 -1 59 C-1.00222061 58.27559219 -1.00444122 57.55118439 -1.00672913 56.80482483 C-1.02673227 49.99156547 -1.04197425 43.17831047 -1.05181217 36.36502934 C-1.05703989 32.86191115 -1.0641355 29.35881715 -1.07543945 25.85571289 C-1.08834206 21.83219159 -1.09322912 17.80869586 -1.09765625 13.78515625 C-1.10539818 11.88987938 -1.10539818 11.88987938 -1.11329651 9.95631409 C-1.11340981 8.21462196 -1.11340981 8.21462196 -1.11352539 6.43774414 C-1.115746 5.40960098 -1.11796661 4.38145782 -1.12025452 3.32215881 C-1 1 -1 1 0 0 Z " fill="#99A3BE" transform="translate(399,55)"/>
<path d="M0 0 C3.35731821 4.34476474 4.36424106 7.82280825 4 13.25 C3.37439307 17.5710525 2.00270331 20.39267947 -0.875 23.75 C-5.33781773 27.06850549 -8.8173827 28.04928979 -14.3125 27.25 C-18.80618823 25.35792075 -21.20415799 22.77418812 -23.875 18.75 C-25.6927464 13.29676079 -25.55885698 8.62006242 -23.1875 3.4375 C-20.80077746 -0.84851582 -18.14718794 -2.4516637 -13.5625 -4.0625 C-8.23940606 -4.43387865 -4.20400537 -3.29009116 0 0 Z " fill="#344678" transform="translate(137.875,66.25)"/>
<path d="M0 0 C19.14 0 38.28 0 58 0 C58 0.66 58 1.32 58 2 C50.08 2 42.16 2 34 2 C34 3.98 34 5.96 34 8 C36.97 8 39.94 8 43 8 C43 19.88 43 31.76 43 44 C44.98 44 46.96 44 49 44 C49 32.12 49 20.24 49 8 C51.97 8 54.94 8 58 8 C58 6.35 58 4.7 58 3 C58.99 3 59.98 3 61 3 C61 4.65 61 6.3 61 8 C63.97 8 66.94 8 70 8 C70 19.88 70 31.76 70 44 C71.485 44.495 71.485 44.495 73 45 C71.515 45.495 71.515 45.495 70 46 C69 45 69 45 68.88647461 41.58178711 C68.88663372 40.06363012 68.89232774 38.54546771 68.90234375 37.02734375 C68.9037587 36.22970108 68.90517365 35.43205841 68.90663147 34.61024475 C68.91224684 32.05262565 68.92480188 29.49509282 68.9375 26.9375 C68.94251302 25.20768355 68.94707627 23.47786574 68.95117188 21.74804688 C68.96137209 17.49863761 68.98094432 13.24941584 69 9 C63.06 9 57.12 9 51 9 C51.10699219 11.41957031 51.21398437 13.83914062 51.32421875 16.33203125 C51.4172148 18.67508941 51.50488539 21.01829045 51.59204102 23.36157227 C51.65547997 24.99037954 51.72445596 26.61898094 51.79907227 28.24731445 C51.90535765 30.5877328 51.99172142 32.9281687 52.07421875 35.26953125 C52.1302552 36.36186821 52.1302552 36.36186821 52.18742371 37.47627258 C52.33665222 42.49159029 52.33665222 42.49159029 50.69458008 44.97143555 C48.15278322 46.51423776 45.89995534 46.19333036 43 46 C40.59355859 42.28625304 40.74181359 38.66151166 40.8046875 34.390625 C40.8075174 33.66381531 40.81034729 32.93700562 40.81326294 32.18817139 C40.82442477 29.87527749 40.84952149 27.56277612 40.875 25.25 C40.88503499 23.67839102 40.89415994 22.10677596 40.90234375 20.53515625 C40.92435096 16.68995378 40.95885285 12.84504336 41 9 C39.35425434 8.97311849 37.70838587 8.95365877 36.0625 8.9375 C35.14597656 8.92589844 34.22945312 8.91429687 33.28515625 8.90234375 C31.03406673 8.74050951 31.03406673 8.74050951 30 10 C28.43827255 10.08685603 26.87270656 10.10702219 25.30859375 10.09765625 C24.36435547 10.09443359 23.42011719 10.09121094 22.44726562 10.08789062 C21.45404297 10.07951172 20.46082031 10.07113281 19.4375 10.0625 C18.44041016 10.05798828 17.44332031 10.05347656 16.41601562 10.04882812 C13.94395151 10.03700007 11.47200482 10.02051849 9 10 C9 12.64 9 15.28 9 18 C14.61 18 20.22 18 26 18 C28.08954032 22.17908064 28.16552619 22.80410573 27 27 C23.13276369 28.26582219 19.26848738 28.1118765 15.25 28.0625 C14.55261719 28.05798828 13.85523438 28.05347656 13.13671875 28.04882812 C11.42444197 28.0371002 9.71220967 28.01916653 8 28 C8 27.34 8 26.68 8 26 C13.94 26 19.88 26 26 26 C26 24.02 26 22.04 26 20 C20.06 20 14.12 20 8 20 C8 16.04 8 12.08 8 8 C15.26 8 22.52 8 30 8 C30 6.02 30 4.04 30 2 C20.43 2 10.86 2 1 2 C1 15.86 1 29.72 1 44 C3.31 44 5.62 44 8 44 C8 39.05 8 34.1 8 29 C10.53500198 32.80250297 10.10103525 34.62620615 9.75 39.125 C9.66234375 40.38570312 9.5746875 41.64640625 9.484375 42.9453125 C9.32453125 43.95335937 9.1646875 44.96140625 9 46 C7 47 7 47 3.4375 46.1875 C0 45 0 45 -1 43 C-1.09913919 40.21418879 -1.13981633 37.45394054 -1.1328125 34.66796875 C-1.13376923 33.83920731 -1.13472595 33.01044586 -1.13571167 32.15657043 C-1.1363929 30.4005221 -1.1345426 28.64447125 -1.13037109 26.88842773 C-1.12504228 24.20876343 -1.13030749 21.5292683 -1.13671875 18.84960938 C-1.13605756 17.1432288 -1.13477555 15.43684833 -1.1328125 13.73046875 C-1.13584885 12.53178413 -1.13584885 12.53178413 -1.13894653 11.30888367 C-1.13579437 10.55492813 -1.13264221 9.8009726 -1.12939453 9.02416992 C-1.12859894 8.36623947 -1.12780334 7.70830902 -1.12698364 7.03044128 C-1 5 -1 5 0 0 Z " fill="#313D60" transform="translate(156,55)"/>
<path d="M0 0 C1.54958007 0.24384329 3.09914973 0.48775279 4.64868748 0.73186481 C9.90903499 1.33173585 15.23412422 1.15417533 20.52171326 1.15821838 C21.90543941 1.16278852 23.28916419 1.1677892 24.67288738 1.17318195 C28.46519461 1.18672102 32.2574929 1.19416911 36.04981792 1.20060861 C40.1431316 1.2086312 44.23642681 1.22232256 48.32972717 1.23532104 C55.41832842 1.25705745 62.50693157 1.27521229 69.59554863 1.29092598 C79.84446529 1.31365046 90.09336147 1.3417897 100.34226073 1.37124526 C116.97092193 1.41888957 133.59959152 1.46216231 150.22827148 1.50268555 C166.38029635 1.54205656 182.53231377 1.58348663 198.68432617 1.62768555 C199.68014363 1.63040982 200.67596109 1.63313409 201.70195483 1.63594092 C206.69774029 1.64962066 211.69352562 1.66334088 216.68931091 1.67708123 C258.12619176 1.79099635 299.56308867 1.89781667 341 2 C340.67 2.66 340.34 3.32 340 4 C229.45 4 118.9 4 5 4 C5 4.99 5 5.98 5 7 C2.03 6.505 2.03 6.505 -1 6 C-1.042721 4.33388095 -1.04063832 2.66617115 -1 1 C-0.67 0.67 -0.34 0.34 0 0 Z " fill="#3D4863" transform="translate(57,39)"/>
<path d="M0 0 C0.66 0 1.32 0 2 0 C2 1.98 2 3.96 2 6 C4.97 6 7.94 6 11 6 C11 17.88 11 29.76 11 42 C12.98 42 14.96 42 17 42 C17 30.12 17 18.24 17 6 C19.97 6 22.94 6 26 6 C26 4.35 26 2.7 26 1 C26.99 1 27.98 1 29 1 C29 2.65 29 4.3 29 6 C31.97 6 34.94 6 38 6 C38 17.88 38 29.76 38 42 C38.99 42.33 39.98 42.66 41 43 C40.01 43.33 39.02 43.66 38 44 C37 43 37 43 36.88647461 39.58178711 C36.88663372 38.06363012 36.89232774 36.54546771 36.90234375 35.02734375 C36.9037587 34.22970108 36.90517365 33.43205841 36.90663147 32.61024475 C36.91224684 30.05262565 36.92480188 27.49509282 36.9375 24.9375 C36.94251302 23.20768355 36.94707627 21.47786574 36.95117188 19.74804688 C36.96137209 15.49863761 36.98094432 11.24941584 37 7 C31.06 7 25.12 7 19 7 C19.10699219 9.41957031 19.21398437 11.83914062 19.32421875 14.33203125 C19.4172148 16.67508941 19.50488539 19.01829045 19.59204102 21.36157227 C19.65547997 22.99037954 19.72445596 24.61898094 19.79907227 26.24731445 C19.90535765 28.5877328 19.99172142 30.9281687 20.07421875 33.26953125 C20.1302552 34.36186821 20.1302552 34.36186821 20.18742371 35.47627258 C20.33665222 40.49159029 20.33665222 40.49159029 18.69458008 42.97143555 C16.15278322 44.51423776 13.89995534 44.19333036 11 44 C8.59355859 40.28625304 8.74181359 36.66151166 8.8046875 32.390625 C8.8075174 31.66381531 8.81034729 30.93700562 8.81326294 30.18817139 C8.82442477 27.87527749 8.84952149 25.56277612 8.875 23.25 C8.88503499 21.67839102 8.89415994 20.10677596 8.90234375 18.53515625 C8.92435096 14.68995378 8.95885285 10.84504336 9 7 C6.03 7 3.06 7 0 7 C0 4.69 0 2.38 0 0 Z " fill="#293459" transform="translate(188,57)"/>
<path d="M0 0 C1.33069211 3.99207632 0.28177459 5.47543436 -1.2734375 9.34765625 C-1.51663727 9.96015732 -1.75983704 10.57265839 -2.01040649 11.20372009 C-2.78982978 13.16028981 -3.58230694 15.11127403 -4.375 17.0625 C-4.90188533 18.38052243 -5.42793708 19.69887841 -5.953125 21.01757812 C-9.71277206 30.42554412 -9.71277206 30.42554412 -11 33 C-10.01 33 -9.02 33 -8 33 C-8.33 33.66 -8.66 34.32 -9 35 C-13.35434803 33.61309828 -16.02311 32.67332204 -18.25 28.56640625 C-18.85737512 27.24253883 -19.44043049 25.90727189 -20 24.5625 C-20.31066406 23.89412109 -20.62132812 23.22574219 -20.94140625 22.53710938 C-22.1308911 19.84609993 -23.04447205 17.64538707 -22.83984375 14.67578125 C-22 13 -22 13 -19.5625 10.625 C-16.8052641 7.80051445 -15.96594229 5.77595622 -15 2 C-13.62567543 5.81756824 -14.32024961 9.07255329 -15 13 C-14.360625 13.268125 -13.72125 13.53625 -13.0625 13.8125 C-11 15 -11 15 -10 18 C-6.95993609 17.35214643 -6.95993609 17.35214643 -6.0168457 15.32592773 C-5.73929443 14.61895752 -5.46174316 13.9119873 -5.17578125 13.18359375 C-4.86962891 12.41982422 -4.56347656 11.65605469 -4.24804688 10.86914062 C-3.93931641 10.06669922 -3.63058594 9.26425781 -3.3125 8.4375 C-2.83200195 7.22803711 -2.83200195 7.22803711 -2.34179688 5.99414062 C-1.55122745 4.00001775 -0.774315 2.00049052 0 0 Z " fill="#31416C" transform="translate(292,66)"/>
<path d="M0 0 C1.31439442 2.62878883 0.79858154 4.04302616 0.375 6.9375 C-0.28898543 13.13469734 1.00092256 18.16088679 3 24 C0.525 22.02 0.525 22.02 -2 20 C-4.40776198 22.23577898 -6.1484031 24.24239173 -7.875 27.0625 C-11.01526279 31.40345151 -14.88292256 32.92767127 -20 34 C-24.46165719 34.43615559 -28.51040786 34.76296183 -32.5625 32.6875 C-34.86620377 28.38057556 -34.83384306 23.81855127 -35 19 C-32.69 19 -30.38 19 -28 19 C-28 19.33 -28 19.66 -28 20 C-29.98 20 -31.96 20 -34 20 C-31.94191654 25.64556266 -31.94191654 25.64556266 -28 30 C-22.89302969 31.70232344 -18.59624372 31.59120138 -13.625 29.75 C-10.80488893 27.86992595 -10.20600307 27.06684943 -9 24 C-8.35352661 19.87618027 -8.02059493 15.73358111 -10.12109375 12.015625 C-11.61081164 10.18105657 -11.61081164 10.18105657 -14 8 C-11.47500443 8.38062566 -10.29994571 8.6456732 -8.62109375 10.62890625 C-8.03521484 11.58603516 -8.03521484 11.58603516 -7.4375 12.5625 C-6.31932405 14.48877939 -6.31932405 14.48877939 -5 16 C-4.01 16 -3.02 16 -2 16 C-2.02320313 15.18015625 -2.04640625 14.3603125 -2.0703125 13.515625 C-2.08835938 12.43796875 -2.10640625 11.3603125 -2.125 10.25 C-2.14820313 9.18265625 -2.17140625 8.1153125 -2.1953125 7.015625 C-2.00487687 4.07529894 -1.52670104 2.47638122 0 0 Z " fill="#2F3C61" transform="translate(107,68)"/>
<path d="M0 0 C0.99 0.33 1.98 0.66 3 1 C2.34 3.31 1.68 5.62 1 8 C-1.31 8 -3.62 8 -6 8 C-6.12375 8.598125 -6.2475 9.19625 -6.375 9.8125 C-7 12 -7 12 -9 15 C-10.46015291 14.71758359 -11.91809793 14.42373386 -13.375 14.125 C-14.18710938 13.96257812 -14.99921875 13.80015625 -15.8359375 13.6328125 C-18 13 -18 13 -20 11 C-20.3267107 7.92891945 -20.48138276 5.84949899 -18.9375 3.125 C-15.85928089 1.33764697 -13.47093932 1.56613258 -10 2 C-8.95374591 3.29735507 -7.95298777 4.63266972 -7 6 C-3.89802603 6.80946422 -3.89802603 6.80946422 -1 7 C-1.33 5.02 -1.66 3.04 -2 1 C-1.34 0.67 -0.68 0.34 0 0 Z " fill="#324168" transform="translate(100,61)"/>
<path d="M0 0 C1.5675 -0.04125 3.135 -0.0825 4.75 -0.125 C5.63171875 -0.14820313 6.5134375 -0.17140625 7.421875 -0.1953125 C10.16681394 0.01263742 11.72987308 0.45754356 14 2 C14.9375 4.9375 14.9375 4.9375 15 8 C13.49284711 10.08130637 12.28773563 10.85613218 10 12 C8.29297265 12.06996014 6.58331997 12.08440154 4.875 12.0625 C3.26625 12.041875 1.6575 12.02125 0 12 C0 8.04 0 4.08 0 0 Z " fill="#344777" transform="translate(255,63)"/>
<path d="M0 0 C2.3352095 0.31992525 4.66821036 0.65603396 7 1 C9.4665522 1.10915643 11.93527318 1.17495064 14.40405273 1.20532227 C15.107332 1.21522186 15.81061127 1.22512146 16.53520203 1.23532104 C18.83463297 1.26663411 21.1340845 1.29157252 23.43359375 1.31640625 C25.03785201 1.33700194 26.64210516 1.35799906 28.24635315 1.37937927 C32.44989868 1.4343301 36.65349097 1.48385733 40.8571167 1.53222656 C45.1541353 1.58263982 49.45108676 1.63822196 53.74804688 1.69335938 C62.16530766 1.80061037 70.58262496 1.90212744 79 2 C79 2.33 79 2.66 79 3 C54.58 3.33 30.16 3.66 5 4 C5 4.99 5 5.98 5 7 C2.03 6.505 2.03 6.505 -1 6 C-1.042721 4.33388095 -1.04063832 2.66617115 -1 1 C-0.67 0.67 -0.34 0.34 0 0 Z " fill="#36415E" transform="translate(57,39)"/>
<path d="M0 0 C2 1 2 1 3.0703125 3.94140625 C3.59238281 5.73384766 3.59238281 5.73384766 4.125 7.5625 C4.65480469 9.35880859 4.65480469 9.35880859 5.1953125 11.19140625 C5.46085937 12.11824219 5.72640625 13.04507813 6 14 C5 15 5 15 2.93359375 15.09765625 C2.10988281 15.08605469 1.28617187 15.07445313 0.4375 15.0625 C-0.38878906 15.05347656 -1.21507812 15.04445313 -2.06640625 15.03515625 C-2.70449219 15.02355469 -3.34257812 15.01195313 -4 15 C-5 13 -5 13 -4.2578125 10.21484375 C-3.88398438 9.13332031 -3.51015625 8.05179688 -3.125 6.9375 C-2.75632812 5.85339844 -2.38765625 4.76929687 -2.0078125 3.65234375 C-1 1 -1 1 0 0 Z " fill="#334478" transform="translate(297,74)"/>
<path d="M0 0 C1.5675 -0.04125 3.135 -0.0825 4.75 -0.125 C5.63171875 -0.14820313 6.5134375 -0.17140625 7.421875 -0.1953125 C10.16681394 0.01263742 11.72987308 0.45754356 14 2 C14.9375 4.9375 14.9375 4.9375 15 8 C13.49284711 10.08130637 12.28773563 10.85613218 10 12 C8.29297265 12.06996014 6.58331997 12.08440154 4.875 12.0625 C3.26625 12.041875 1.6575 12.02125 0 12 C0 8.04 0 4.08 0 0 Z M2 1 C2 3.97 2 6.94 2 10 C5.3 10 8.6 10 12 10 C13.11739968 5.82427763 13.11739968 5.82427763 12 2 C8.52674819 0.8422494 5.63932552 0.93133348 2 1 Z " fill="#2D3757" transform="translate(255,63)"/>
<path d="M0 0 C1.15371094 0.00257812 2.30742187 0.00515625 3.49609375 0.0078125 C5.22666016 -0.03472656 5.22666016 -0.03472656 6.9921875 -0.078125 C8.09691406 -0.08070312 9.20164063 -0.08328125 10.33984375 -0.0859375 C11.35240234 -0.09302734 12.36496094 -0.10011719 13.40820312 -0.10742188 C15.99609375 0.5078125 15.99609375 0.5078125 17.84960938 3.04492188 C18.22794922 3.85767578 18.60628906 4.67042969 18.99609375 5.5078125 C18.00609375 6.4978125 17.01609375 7.4878125 15.99609375 8.5078125 C15.99609375 6.5278125 15.99609375 4.5478125 15.99609375 2.5078125 C6.75609375 2.8378125 -2.48390625 3.1678125 -12.00390625 3.5078125 C-7.96561327 -0.53048048 -5.50043491 0.06418244 0 0 Z " fill="#323D62" transform="translate(226.00390625,54.4921875)"/>
<path d="M0 0 C3 1 3 1 4.25 3.5 C5.50654433 9.36387356 5.0174988 14.03768089 2.25 19.375 C-1.23066056 23.43577066 -4.65334176 25.46533418 -10 26 C-12.8125 25.5625 -12.8125 25.5625 -15 25 C-15 24.67 -15 24.34 -15 24 C-13.824375 23.9175 -12.64875 23.835 -11.4375 23.75 C-6.78325011 23.16305197 -3.84206677 21.68944674 0 19 C1.93927374 16.02561552 2.1941038 14.10408631 1.6875 10.625 C1.57921875 9.84511719 1.4709375 9.06523438 1.359375 8.26171875 C1.24078125 7.51535156 1.1221875 6.76898438 1 6 C0.814375 4.824375 0.62875 3.64875 0.4375 2.4375 C0.293125 1.633125 0.14875 0.82875 0 0 Z " fill="#2A3754" transform="translate(137,68)"/>
<path d="M0 0 C2.9375 0.3125 2.9375 0.3125 4.9375 1.3125 C4.6075 3.9525 4.2775 6.5925 3.9375 9.3125 C-2.58557692 8.82019231 -2.58557692 8.82019231 -5 6.25 C-5.350625 5.610625 -5.70125 4.97125 -6.0625 4.3125 C-4.28837093 1.15849276 -3.70270916 0.37782747 0 0 Z " fill="#364779" transform="translate(86.0625,64.6875)"/>
<path d="M0 0 C4.85431964 0.11633446 8.10263895 0.35390004 12.125 3.25 C14 6 14 6 13.9375 8.6875 C13 11 13 11 11 13 C4.67741935 13.33870968 4.67741935 13.33870968 2 12 C2 11.34 2 10.68 2 10 C4.64 10.33 7.28 10.66 10 11 C10.66 9.02 11.32 7.04 12 5 C11.38511719 4.97421875 10.77023438 4.9484375 10.13671875 4.921875 C3.45283019 4.45283019 3.45283019 4.45283019 0.9375 1.9375 C0.628125 1.298125 0.31875 0.65875 0 0 Z " fill="#2F3F65" transform="translate(79,80)"/>
<path d="M0 0 C2.56864728 1.28432364 2.946539 2.36634751 4 5 C4 6.32 4 7.64 4 9 C4.66 9 5.32 9 6 9 C6.27714844 9.90363281 6.55429687 10.80726562 6.83984375 11.73828125 C7.20207031 12.91777344 7.56429688 14.09726563 7.9375 15.3125 C8.29714844 16.48425781 8.65679687 17.65601563 9.02734375 18.86328125 C10.60070819 24.00836793 10.60070819 24.00836793 14 28 C13.67 28.99 13.34 29.98 13 31 C12.34 31 11.68 31 11 31 C9.4268862 27.06987792 7.86050167 23.13716168 6.30029297 19.2019043 C5.76860679 17.86360574 5.23508993 16.52603297 4.69970703 15.18920898 C3.93039 13.26734371 3.16769846 11.34296284 2.40625 9.41796875 C1.94541016 8.26063232 1.48457031 7.1032959 1.00976562 5.91088867 C0 3 0 3 0 0 Z " fill="#2D3A5E" transform="translate(302,66)"/>
<path d="M0 0 C1.21236328 0.01353516 1.21236328 0.01353516 2.44921875 0.02734375 C3.37154297 0.04474609 3.37154297 0.04474609 4.3125 0.0625 C4.3125 0.3925 4.3125 0.7225 4.3125 1.0625 C3.57644531 1.12566406 2.84039062 1.18882813 2.08203125 1.25390625 C-3.63143035 1.85601696 -3.63143035 1.85601696 -8.49609375 4.61328125 C-11.84284216 9.2510602 -13.00397003 13.11583757 -12.25 18.8125 C-12.14816406 19.61171875 -12.04632813 20.4109375 -11.94140625 21.234375 C-11.85761719 21.83765625 -11.77382813 22.4409375 -11.6875 23.0625 C-14.41283914 20.33716086 -14.38162495 18.18980854 -14.71875 14.4453125 C-14.65618263 9.67455055 -12.69256791 6.25601814 -9.6875 2.6875 C-6.53737361 0.12802231 -3.91339576 -0.05671588 0 0 Z " fill="#2C385A" transform="translate(339.6875,62.9375)"/>
<path d="M0 0 C2.31 0 4.62 0 7 0 C7 0.33 7 0.66 7 1 C5.02 1 3.04 1 1 1 C3.16855792 6.55104982 3.16855792 6.55104982 7 11 C7 11.66 7 12.32 7 13 C9.64 13.33 12.28 13.66 15 14 C15 14.33 15 14.66 15 15 C6.18269231 15.60576923 6.18269231 15.60576923 2.4375 13.6875 C0.13379623 9.38057556 0.16615694 4.81855127 0 0 Z " fill="#334167" transform="translate(72,87)"/>
<path d="M0 0 C0.66 0.33 1.32 0.66 2 1 C1.42676569 4.86933162 -0.38953552 7.15222057 -3 10 C-3.66 10 -4.32 10 -5 10 C-5 9.34 -5 8.68 -5 8 C-6.32 7.67 -7.64 7.34 -9 7 C-9.33 5.68 -9.66 4.36 -10 3 C-7.69 3.33 -5.38 3.66 -3 4 C-2.01 2.68 -1.02 1.36 0 0 Z " fill="#313F67" transform="translate(354,61)"/>
<path d="M0 0 C0.66 0 1.32 0 2 0 C1.5359375 1.1446875 1.5359375 1.1446875 1.0625 2.3125 C-0.28129375 5.71150772 -1.12500875 8.37383614 -1.09765625 12.01171875 C-1.09443359 12.76904297 -1.09121094 13.52636719 -1.08789062 14.30664062 C-1.07951172 15.09232422 -1.07113281 15.87800781 -1.0625 16.6875 C-1.05798828 17.48478516 -1.05347656 18.28207031 -1.04882812 19.10351562 C-1.0370585 21.06904257 -1.01912348 23.03453085 -1 25 C-4.60110025 21.39889975 -4.12014915 16.37509921 -4.3125 11.5 C-4.27751516 6.37122233 -3.46614348 3.77197967 0 0 Z " fill="#2B365A" transform="translate(321,63)"/>
<path d="M0 0 C0.53109375 0.27714844 1.0621875 0.55429688 1.609375 0.83984375 C2.31578125 1.20207031 3.0221875 1.56429687 3.75 1.9375 C4.79414063 2.47697266 4.79414063 2.47697266 5.859375 3.02734375 C13.25741044 6.38885985 20.47060793 5.15125488 28 3 C27 5 27 5 24.625 6.0625 C17.95520674 7.78744653 11.70158905 9.27406696 5.3125 6.0625 C4.219375 5.381875 3.12625 4.70125 2 4 C2 3.34 2 2.68 2 2 C1.34 2 0.68 2 0 2 C0 1.34 0 0.68 0 0 Z " fill="#2F3A5B" transform="translate(324,94)"/>
<path d="M0 0 C2.96052484 3.36423277 3.92289822 6.69159287 5 11 C7.64 11 10.28 11 13 11 C12 13 12 13 10.25 14.25 C8 15 8 15 5.4375 14.75 C1.49868223 11.92213083 0.91903659 7.61012663 0 3 C0 2.01 0 1.02 0 0 Z " fill="#313F63" transform="translate(264,88)"/>
<path d="M0 0 C4.95 0 9.9 0 15 0 C15.33 0.66 15.66 1.32 16 2 C15.03578125 2.04898438 14.0715625 2.09796875 13.078125 2.1484375 C11.81484375 2.22320312 10.5515625 2.29796875 9.25 2.375 C7.37054688 2.47941406 7.37054688 2.47941406 5.453125 2.5859375 C2.39001879 2.95323304 0.58025734 3.39711286 -2 5 C-1.34 3.35 -0.68 1.7 0 0 Z " fill="#313E61" transform="translate(290,94)"/>
<path d="M0 0 C0.33 0 0.66 0 1 0 C1 1.98 1 3.96 1 6 C4.93075644 5.42547254 4.93075644 5.42547254 8 3 C8.5625 4.9375 8.5625 4.9375 9 7 C8 8 8 8 5.93359375 8.09765625 C5.10988281 8.08605469 4.28617187 8.07445313 3.4375 8.0625 C2.61121094 8.05347656 1.78492188 8.04445313 0.93359375 8.03515625 C0.29550781 8.02355469 -0.34257812 8.01195313 -1 8 C-2 6 -2 6 -1.0625 2.875 C-0.5365625 1.451875 -0.5365625 1.451875 0 0 Z " fill="#2B3851" transform="translate(294,81)"/>
<path d="M0 0 C1.65 0.33 3.3 0.66 5 1 C5.33 3.97 5.66 6.94 6 10 C3.77810176 7.77810176 3.07401108 5.91517292 2 3 C0.04783565 4.95216435 -0.84826645 6.53199953 -2 9 C-2.33 8.34 -2.66 7.68 -3 7 C-2.06421005 4.64018187 -1.06652192 2.30368736 0 0 Z " fill="#2F3C5A" transform="translate(296,56)"/>
<path d="M0 0 C0.33 0.66 0.66 1.32 1 2 C0.505 1.835 0.01 1.67 -0.5 1.5 C-4.97768095 0.60446381 -9.37093805 -0.05668883 -13.3125 2.5 C-13.869375 2.995 -14.42625 3.49 -15 4 C-15.99 4 -16.98 4 -18 4 C-17 1 -17 1 -15.21484375 -0.01953125 C-9.34936109 -2.06188627 -5.85114095 -2.19417786 0 0 Z " fill="#273858" transform="translate(135,64)"/>
<path d="M0 0 C0.99 0.33 1.98 0.66 3 1 C4.80795432 5.0916861 5.21156222 8.55719328 5 13 C4.34 13 3.68 13 3 13 C2.01 8.71 1.02 4.42 0 0 Z " fill="#313C5E" transform="translate(137,68)"/>
<path d="M0 0 C0.66 1.32 1.32 2.64 2 4 C1.38511719 3.89300781 0.77023438 3.78601563 0.13671875 3.67578125 C-1.07564453 3.49595703 -1.07564453 3.49595703 -2.3125 3.3125 C-3.11300781 3.18488281 -3.91351563 3.05726562 -4.73828125 2.92578125 C-7.09649679 2.77257193 -7.09649679 2.77257193 -8.79296875 4.48046875 C-9.39044922 5.23263672 -9.39044922 5.23263672 -10 6 C-9.625 3.5625 -9.625 3.5625 -9 1 C-6.04335481 -0.4783226 -3.25770263 -0.06032783 0 0 Z " fill="#2D3B5A" transform="translate(90,63)"/>
<path d="M0 0 C6.6 0.6 6.6 0.6 9 3 C6.69 3 4.38 3 2 3 C1.67 3.99 1.34 4.98 1 6 C0.34 6 -0.32 6 -1 6 C-1.042721 4.33388095 -1.04063832 2.66617115 -1 1 C-0.67 0.67 -0.34 0.34 0 0 Z " fill="#94949E" transform="translate(57,39)"/>
<path d="M0 0 C0.66 0.66 1.32 1.32 2 2 C1.67028521 5.29714793 1.3773161 6.6226839 -1 9 C-7.32258065 9.33870968 -7.32258065 9.33870968 -10 8 C-10 7.34 -10 6.68 -10 6 C-7.36 6.33 -4.72 6.66 -2 7 C-1.34 4.69 -0.68 2.38 0 0 Z " fill="#2D3756" transform="translate(91,84)"/>
<path d="M0 0 C0.66 0.33 1.32 0.66 2 1 C2.6328125 3.06640625 2.6328125 3.06640625 3.125 5.5625 C3.29257812 6.38878906 3.46015625 7.21507813 3.6328125 8.06640625 C3.75398438 8.70449219 3.87515625 9.34257813 4 10 C3.34 8.68 2.68 7.36 2 6 C0.68 6.33 -0.64 6.66 -2 7 C-1.125 1.125 -1.125 1.125 0 0 Z " fill="#253253" transform="translate(297,74)"/>
<path d="M0 0 C4.46839215 -0.21278058 7.82262526 0.40861915 12 2 C12 2.66 12 3.32 12 4 C9.69 4 7.38 4 5 4 C4.67 3.01 4.34 2.02 4 1 C1.98491642 0.26676204 1.98491642 0.26676204 0 0 Z " fill="#32426F" transform="translate(126,64)"/>
<path d="M0 0 C0.66 0 1.32 0 2 0 C2 0.66 2 1.32 2 2 C6.455 1.505 6.455 1.505 11 1 C11 1.66 11 2.32 11 3 C5.64347826 5.19130435 5.64347826 5.19130435 2.6875 4.3125 C1 3 1 3 0 0 Z " fill="#304163" transform="translate(305,97)"/>
<path d="" fill="#000000" transform="translate(0,0)"/>
<path d="M0 0 C2 1 2 1 2 1 Z " fill="#002A2A" transform="translate(266,62)"/>
<path d="" fill="#000000" transform="translate(0,0)"/>
<path d="" fill="#000000" transform="translate(0,0)"/>
</svg>
