<?xml version="1.0" standalone="no"?>
<!DOCTYPE svg PUBLIC "-//W3C//DTD SVG 20010904//EN"
 "http://www.w3.org/TR/2001/REC-SVG-20010904/DTD/svg10.dtd">
<svg version="1.0" xmlns="http://www.w3.org/2000/svg"
 width="522.000000pt" height="150.000000pt" viewBox="0 0 522.000000 150.000000"
 preserveAspectRatio="xMidYMid meet">

<g transform="translate(0.000000,150.000000) scale(0.100000,-0.100000)"
fill="#000000" stroke="none">
<path d="M583 1005 c-76 -39 -104 -115 -68 -185 17 -34 44 -49 147 -86 87 -31
108 -48 108 -85 0 -77 -137 -78 -169 -1 l-12 29 -52 -12 c-35 -8 -51 -17 -49
-26 20 -97 135 -154 258 -129 81 17 125 59 131 126 6 57 -13 104 -50 129 -13
8 -57 26 -97 40 -94 32 -120 49 -120 80 0 36 26 55 76 55 43 0 51 -4 86 -52
11 -15 19 -15 61 -6 41 10 46 14 41 32 -21 64 -87 106 -179 113 -50 4 -68 0
-112 -22z"/>
<path d="M1085 1021 c-79 -21 -140 -76 -170 -155 -23 -61 -17 -174 13 -233 91
-177 389 -163 468 22 20 47 22 165 5 210 -39 98 -119 155 -226 161 -33 2 -73
0 -90 -5z m156 -114 c51 -34 71 -80 67 -154 -4 -72 -26 -108 -79 -135 -77 -38
-172 -9 -208 64 -27 57 -27 114 2 169 41 77 146 105 218 56z"/>
<path d="M2389 1003 c-35 -19 -64 -43 -84 -71 -27 -40 -30 -51 -30 -122 0 -71
3 -82 30 -122 34 -47 89 -83 148 -93 37 -7 39 -6 35 16 -2 19 -11 25 -39 30
-74 11 -139 91 -139 169 0 77 64 153 144 169 22 5 32 13 34 29 5 31 -30 29
-99 -5z"/>
<path d="M4124 1021 c-78 -19 -144 -78 -175 -156 -17 -45 -15 -163 5 -210 39
-91 133 -148 246 -149 92 0 180 47 216 116 19 36 19 36 -22 53 -49 20 -59 19
-72 -9 -12 -28 -86 -66 -128 -66 -16 0 -47 9 -70 19 -100 45 -113 218 -22 284
60 45 178 28 214 -30 10 -15 19 -29 20 -31 1 -2 25 5 52 14 50 18 50 18 37 45
-23 44 -101 106 -150 118 -49 12 -104 13 -151 2z"/>
<path d="M1470 765 l0 -255 50 0 50 0 0 105 0 105 85 0 85 0 0 45 0 45 -85 0
-85 0 0 60 0 60 155 0 155 0 0 -210 0 -210 50 0 50 0 0 210 0 210 60 0 60 0 0
45 0 45 -315 0 -315 0 0 -255z"/>
<path d="M2690 975 l0 -45 60 0 60 0 0 -210 0 -210 55 0 55 0 0 210 0 210 60
0 60 0 0 45 0 45 -175 0 -175 0 0 -45z"/>
<path d="M3070 765 l0 -255 50 0 50 0 0 115 c0 154 12 154 103 0 l68 -115 103
0 102 0 18 55 17 55 109 0 109 0 17 -55 18 -55 54 0 c47 0 53 2 47 18 -3 9
-45 124 -93 255 l-87 237 -65 0 -66 0 -83 -227 c-46 -126 -87 -234 -90 -241
-5 -8 -31 22 -74 87 l-66 100 37 18 c98 48 92 194 -9 245 -27 14 -59 18 -151
18 l-118 0 0 -255z m233 144 c22 -27 22 -41 -1 -69 -14 -18 -32 -24 -75 -28
l-57 -4 0 67 0 68 58 -7 c40 -4 62 -12 75 -27z m428 -104 l37 -105 -79 0 -78
0 37 105 c20 58 39 105 42 105 3 0 21 -47 41 -105z"/>
<path d="M4420 975 l0 -45 60 0 60 0 0 -210 0 -210 55 0 55 0 0 210 0 210 60
0 60 0 0 45 0 45 -175 0 -175 0 0 -45z"/>
<path d="M2416 921 c-41 -27 -55 -57 -56 -115 0 -43 4 -53 39 -87 25 -25 48
-39 65 -39 25 0 26 2 26 65 l0 65 66 0 c63 0 65 1 58 23 -23 74 -63 107 -131
107 -21 0 -51 -9 -67 -19z"/>
<path d="M2180 786 c0 -79 79 -204 154 -243 44 -23 139 -44 150 -33 14 14 -2
40 -25 40 -106 0 -211 100 -234 223 -5 27 -12 37 -26 37 -13 0 -19 -7 -19 -24z"/>
</g>
</svg>
